<?xml version="1.0" encoding="utf-8"?>
<!-- Generator: Adobe Illustrator 23.0.4, SVG Export Plug-In . SVG Version: 6.00 Build 0)  -->
<svg version="1.1" id="Ebene_1" xmlns="http://www.w3.org/2000/svg" xmlns:xlink="http://www.w3.org/1999/xlink" x="0px" y="0px"
	 viewBox="0 0 359.6 113.39" style="enable-background:new 0 0 359.6 113.39;" xml:space="preserve">
<style type="text/css">
	.st0{fill:#21384F;}
	.st1{fill:url(#SVGID_1_);}
	.st2{fill:url(#SVGID_2_);}
	.st3{fill:url(#SVGID_3_);}
	.st4{fill:url(#SVGID_4_);}
	.st5{fill:url(#SVGID_5_);}
	.st6{fill:url(#SVGID_6_);}
</style>
<g>
	<g>
		<g>
			<path class="st0" d="M0,80.02h14.79V33.39H0v-6.44h37.19v6.44H22.41v46.63h14.79v6.44H0V80.02z"/>
			<path class="st0" d="M62.96,55.71l-16.6-28.76h8.44l8.35,15.15c1.54,2.72,2.9,5.17,4.81,8.71h0.36c1.63-3.54,2.81-5.99,4.26-8.71
				l8.16-15.15h8.07l-16.6,29.12l17.78,30.39h-8.53L72.58,70.5c-1.63-2.99-3.27-5.99-5.26-9.62h-0.36
				c-1.72,3.63-3.27,6.62-4.81,9.62l-8.89,15.97h-8.07L62.96,55.71z"/>
		</g>
		<g>
			<path class="st0" d="M238.6,26.95h8.71l20.05,59.51h-8.16l-10.25-33.2c-2.09-6.62-4.08-13.15-5.9-20.05h-0.36
				c-1.9,6.89-3.81,13.43-5.9,20.05l-10.43,33.2h-7.8L238.6,26.95z M229.17,62.24h27.31v6.17h-27.31V62.24z"/>
			<path class="st0" d="M275.86,26.95h17.96c13.15,0,22.05,4.44,22.05,17.51c0,12.61-8.98,18.42-22.05,18.42h-10.34v23.59h-7.62
				V26.95z M292.92,56.71c10.34,0,15.33-3.81,15.33-12.25c0-8.53-5.08-11.34-15.33-11.34h-9.43v23.59H292.92z"/>
			<path class="st0" d="M322.4,80.02h14.79V33.39H322.4v-6.44h37.19v6.44h-14.79v46.63h14.79v6.44H322.4V80.02z"/>
		</g>
		<g>
			<linearGradient id="SVGID_1_" gradientUnits="userSpaceOnUse" x1="128.4174" y1="-13.9026" x2="217.3714" y2="47.3083">
				<stop  offset="0" style="stop-color:#FFFFFF"/>
				<stop  offset="3.768835e-04" style="stop-color:#BEF000"/>
				<stop  offset="0.0867" style="stop-color:#B8EF08"/>
				<stop  offset="0.2177" style="stop-color:#A9EE1D"/>
				<stop  offset="0.3772" style="stop-color:#8FEB3F"/>
				<stop  offset="0.5588" style="stop-color:#6CE76F"/>
				<stop  offset="0.7593" style="stop-color:#3EE3AC"/>
				<stop  offset="0.9726" style="stop-color:#07DDF5"/>
				<stop  offset="1" style="stop-color:#00DCFF"/>
			</linearGradient>
			<path class="st1" d="M157.64,19.5l26.66,13.22l15.81-10.57c-1.63-1.08-3.58-1.71-5.68-1.71c-2.37,0-4.55,0.81-6.3,2.16
				l-23.63-11.71c0.04-0.37,0.07-0.75,0.07-1.14c0-4.51-2.9-8.34-6.94-9.74V19.5z"/>
			<linearGradient id="SVGID_2_" gradientUnits="userSpaceOnUse" x1="87.8101" y1="45.1095" x2="176.764" y2="106.3204">
				<stop  offset="0" style="stop-color:#FFFFFF"/>
				<stop  offset="3.768835e-04" style="stop-color:#BEF000"/>
				<stop  offset="0.0867" style="stop-color:#B8EF08"/>
				<stop  offset="0.2177" style="stop-color:#A9EE1D"/>
				<stop  offset="0.3772" style="stop-color:#8FEB3F"/>
				<stop  offset="0.5588" style="stop-color:#6CE76F"/>
				<stop  offset="0.7593" style="stop-color:#3EE3AC"/>
				<stop  offset="0.9726" style="stop-color:#07DDF5"/>
				<stop  offset="1" style="stop-color:#00DCFF"/>
			</linearGradient>
			<path class="st2" d="M121.05,74.99V38.38l-16.64-11.13c-0.39,1.09-0.62,2.27-0.62,3.5c0,4.33,2.67,8.03,6.45,9.56v32.73
				c-3.78,1.53-6.45,5.23-6.45,9.56c0,1.24,0.23,2.43,0.63,3.53l16.64-11.13C121.06,75,121.06,75,121.05,74.99z"/>
			<linearGradient id="SVGID_3_" gradientUnits="userSpaceOnUse" x1="119.7007" y1="-1.2351" x2="208.6546" y2="59.9758">
				<stop  offset="0" style="stop-color:#FFFFFF"/>
				<stop  offset="3.768835e-04" style="stop-color:#BEF000"/>
				<stop  offset="0.0867" style="stop-color:#B8EF08"/>
				<stop  offset="0.2177" style="stop-color:#A9EE1D"/>
				<stop  offset="0.3772" style="stop-color:#8FEB3F"/>
				<stop  offset="0.5588" style="stop-color:#6CE76F"/>
				<stop  offset="0.7593" style="stop-color:#3EE3AC"/>
				<stop  offset="0.9726" style="stop-color:#07DDF5"/>
				<stop  offset="1" style="stop-color:#00DCFF"/>
			</linearGradient>
			<path class="st3" d="M187.48,75.01C187.47,75.01,187.47,75.01,187.48,75.01l16.64,11.14c0.4-1.11,0.64-2.3,0.64-3.54
				c0-4.34-2.68-8.04-6.47-9.57V40.32c3.79-1.53,6.47-5.23,6.47-9.57c0-1.23-0.23-2.41-0.63-3.51l-16.65,11.14V75.01z"/>
			<linearGradient id="SVGID_4_" gradientUnits="userSpaceOnUse" x1="79.0978" y1="57.7706" x2="168.0517" y2="118.9815">
				<stop  offset="0" style="stop-color:#FFFFFF"/>
				<stop  offset="3.768835e-04" style="stop-color:#BEF000"/>
				<stop  offset="0.0867" style="stop-color:#B8EF08"/>
				<stop  offset="0.2177" style="stop-color:#A9EE1D"/>
				<stop  offset="0.3772" style="stop-color:#8FEB3F"/>
				<stop  offset="0.5588" style="stop-color:#6CE76F"/>
				<stop  offset="0.7593" style="stop-color:#3EE3AC"/>
				<stop  offset="0.9726" style="stop-color:#07DDF5"/>
				<stop  offset="1" style="stop-color:#00DCFF"/>
			</linearGradient>
			<path class="st4" d="M150.88,93.9C150.88,93.9,150.88,93.9,150.88,93.9L124.24,80.7c0-0.01,0-0.01,0-0.02l-15.78,10.56
				c1.62,1.07,3.57,1.69,5.65,1.69c2.35,0,4.52-0.8,6.25-2.13l23.64,11.72c-0.04,0.37-0.06,0.74-0.06,1.12
				c0,4.51,2.9,8.34,6.94,9.74V93.9z"/>
			<linearGradient id="SVGID_5_" gradientUnits="userSpaceOnUse" x1="90.3553" y1="41.4107" x2="179.3092" y2="102.6216">
				<stop  offset="0" style="stop-color:#FFFFFF"/>
				<stop  offset="3.768835e-04" style="stop-color:#BEF000"/>
				<stop  offset="0.0867" style="stop-color:#B8EF08"/>
				<stop  offset="0.2177" style="stop-color:#A9EE1D"/>
				<stop  offset="0.3772" style="stop-color:#8FEB3F"/>
				<stop  offset="0.5588" style="stop-color:#6CE76F"/>
				<stop  offset="0.7593" style="stop-color:#3EE3AC"/>
				<stop  offset="0.9726" style="stop-color:#07DDF5"/>
				<stop  offset="1" style="stop-color:#00DCFF"/>
			</linearGradient>
			<path class="st5" d="M184.3,80.69L157.64,93.9c0,0,0,0,0,0v19.48c4.04-1.4,6.94-5.23,6.94-9.74c0-0.38-0.02-0.75-0.06-1.12
				l23.66-11.73c1.74,1.33,3.9,2.13,6.26,2.13c2.08,0,4.02-0.62,5.64-1.69L184.3,80.69z"/>
			<linearGradient id="SVGID_6_" gradientUnits="userSpaceOnUse" x1="117.1506" y1="2.4707" x2="206.1046" y2="63.6816">
				<stop  offset="0" style="stop-color:#FFFFFF"/>
				<stop  offset="3.768835e-04" style="stop-color:#BEF000"/>
				<stop  offset="0.0867" style="stop-color:#B8EF08"/>
				<stop  offset="0.2177" style="stop-color:#A9EE1D"/>
				<stop  offset="0.3772" style="stop-color:#8FEB3F"/>
				<stop  offset="0.5588" style="stop-color:#6CE76F"/>
				<stop  offset="0.7593" style="stop-color:#3EE3AC"/>
				<stop  offset="0.9726" style="stop-color:#07DDF5"/>
				<stop  offset="1" style="stop-color:#00DCFF"/>
			</linearGradient>
			<path class="st6" d="M124.23,32.72c0,0,0-0.01,0-0.01l26.65-13.21V0c-4.04,1.4-6.94,5.23-6.94,9.74c0,0.39,0.02,0.76,0.07,1.14
				L120.4,22.59c-1.74-1.34-3.92-2.15-6.29-2.15c-2.1,0-4.06,0.63-5.69,1.71L124.23,32.72z"/>
		</g>
	</g>
</g>
</svg>
